<svg xmlns="http://www.w3.org/2000/svg" version="1.1" xmlns:xlink="http://www.w3.org/1999/xlink" xmlns:svgjs="http://svgjs.dev/svgjs" width="1500" height="340" viewBox="0 0 1500 340"><g transform="matrix(1,0,0,1,-0.9090909090909918,-0.9418070935644494)"><svg viewBox="0 0 396 90" data-background-color="#ffffff" preserveAspectRatio="xMidYMid meet" height="340" width="1500" xmlns="http://www.w3.org/2000/svg" xmlns:xlink="http://www.w3.org/1999/xlink"><g id="tight-bounds" transform="matrix(1,0,0,1,0.2400000000000091,0.2493018777082341)"><svg viewBox="0 0 395.52 89.50139624458352" height="89.50139624458352" width="395.52"><g><svg viewBox="0 0 395.52 89.50139624458352" height="89.50139624458352" width="395.52"><g><svg viewBox="0 0 395.52 89.50139624458352" height="89.50139624458352" width="395.52"><g id="textblocktransform"><svg viewBox="0 0 395.52 89.50139624458352" height="89.50139624458352" width="395.52" id="textblock"><g><svg viewBox="0 0 395.52 89.50139624458352" height="89.50139624458352" width="395.52"><g transform="matrix(1,0,0,1,0,0)"><svg width="395.52" viewBox="4 -40 207.69 47" height="89.50139624458352" data-palette-color="#001f3f"><path d="M27.6-0.6L18.15-16.45 14.3-16.45Q13.45-16.45 12.98-17.13 12.5-17.8 12.5-18.95L12.5-18.95Q12.5-21.5 14.6-21.5L14.6-21.5 20.45-21.5Q22.3-21.5 23.05-22.55 23.8-23.6 23.8-24.85L23.8-24.85 23.8-31.3Q23.8-32.55 23.05-33.6 22.3-34.65 20.45-34.65L20.45-34.65 9.9-34.65 9.9-2.05Q9.9 0.35 6.95 0.35L6.95 0.35Q4 0.35 4-2.05L4-2.05 4-36.7Q4-38.5 4.93-39.1 5.85-39.7 7.15-39.7L7.15-39.7 21.7-39.7Q23-39.7 24.4-39.15 25.8-38.6 27.1-37.75L27.1-37.75 27.05-37.75Q28.35-36.8 29.05-35.27 29.75-33.75 29.75-31.75L29.75-31.75 29.75-24.45Q29.75-20.4 27.05-18.4L27.05-18.4Q26.5-18 25.88-17.65 25.25-17.3 24.6-16.95L24.6-16.95 32.6-3.75Q32.75-3.5 32.9-3.1 33.05-2.7 33.05-2.45L33.05-2.45Q33.05-1.25 31.35-0.15L31.35-0.15 31.35-0.2Q30.2 0.5 29.4 0.5L29.4 0.5Q28.25 0.5 27.55-0.65L27.55-0.65 27.6-0.6ZM51.35 0L44.8 0Q43.25 0 41.85-0.43 40.45-0.85 39.15-1.65L39.15-1.65 39.15-1.6Q36.7-3.15 36.7-7.3L36.7-7.3 36.7-9.75Q36.7-11.8 37.42-13.33 38.15-14.85 39.45-15.75L39.45-15.75 39.4-15.75Q40.65-16.6 42.05-17.03 43.45-17.45 44.75-17.45L44.75-17.45 55.8-17.45 55.8-22.1Q55.8-23.35 55.02-24.38 54.25-25.4 52.4-25.4L52.4-25.4 46.55-25.4Q44.65-25.4 43.92-24.48 43.2-23.55 43.2-22.3L43.2-22.3 43.2-21.9Q43.2-19.3 40.4-19.3L40.4-19.3Q37.6-19.3 37.6-21.9L37.6-21.9 37.6-22.35Q37.6-24.4 38.32-25.8 39.05-27.2 40.3-28.15L40.3-28.15 40.25-28.15Q41.55-29 42.97-29.55 44.4-30.1 45.7-30.1L45.7-30.1 53.3-30.1Q54.55-30.1 55.97-29.55 57.4-29 58.65-28.15L58.65-28.15 58.6-28.15Q59.9-27.2 60.6-25.68 61.3-24.15 61.3-22.15L61.3-22.15 61.3-2.1Q61.3 0.3 58.55 0.3L58.55 0.3Q58 0.3 57.52 0.25 57.05 0.2 56.67-0.03 56.3-0.25 56.07-0.68 55.85-1.1 55.85-1.8L55.85-1.8 55.8-12.75 45.7-12.75Q44.6-12.75 44-12.5 43.4-12.25 43.05-11.7L43.05-11.7Q42.65-10.85 42.47-10.38 42.3-9.9 42.3-9.3L42.3-9.3 42.3-7.35Q42.3-6.05 43.07-5.38 43.85-4.7 45.75-4.7L45.75-4.7 51.35-4.7Q53.2-4.7 53.2-2.35L53.2-2.35Q53.2-1.35 52.75-0.68 52.3 0 51.35 0L51.35 0ZM71.95 7L69.35 7Q67.6 7 67.5 4.65L67.5 4.65Q67.5 2.3 69.35 2.3L69.35 2.3 71.55 2.3Q73.3 2.3 73.85 1.25L73.85 1.25 74.55-0.6 74.8-1.4 65.05-26.95 65.05-26.9Q64.65-28.1 65.22-28.95 65.8-29.8 67-30.2L67-30.2Q67.9-30.45 68.45-30.45L68.45-30.45Q69.9-30.45 70.25-28.75L70.25-28.75 74.2-18.9 77.55-10.7 82.9-28.65Q83.35-30.45 85-30.45L85-30.45Q85.4-30.45 86.3-30.2L86.3-30.2Q87.5-29.85 88.02-29.05 88.55-28.25 88.25-27.15L88.25-27.15Q86-19.5 83.67-11.75 81.35-4 79.1 3.6L79.1 3.6Q78.85 4.15 78.32 4.73 77.8 5.3 76.95 5.83 76.1 6.35 74.85 6.68 73.6 7 71.95 7L71.95 7ZM119.89-11.3L119.89-8Q119.89-3.95 117.19-1.95L117.19-1.95Q115.89-1 114.52-0.48 113.14 0.05 111.84 0.05L111.84 0.05 100.94 0.05Q99.64 0.05 98.27-0.48 96.89-1 95.59-1.95L95.59-1.95Q94.29-2.95 93.59-4.42 92.89-5.9 92.89-8L92.89-8 92.89-31.75Q92.89-33.75 93.59-35.27 94.29-36.8 95.59-37.75L95.59-37.75 95.54-37.75Q96.84-38.6 98.24-39.15 99.64-39.7 100.94-39.7L100.94-39.7 111.84-39.7Q113.14-39.7 114.54-39.15 115.94-38.6 117.24-37.75L117.24-37.75 117.19-37.75Q118.49-36.8 119.19-35.27 119.89-33.75 119.89-31.75L119.89-31.75 119.89-28.3Q119.89-25.9 116.89-25.9L116.89-25.9Q113.94-25.9 113.94-28.3L113.94-28.3 113.94-31.3Q113.94-32.55 113.19-33.6 112.44-34.65 110.59-34.65L110.59-34.65 102.19-34.65Q100.34-34.65 99.59-33.6 98.84-32.55 98.84-31.3L98.84-31.3 98.84-8.4Q98.84-7.1 99.59-6.05 100.34-5 102.19-5L102.19-5 110.59-5Q112.44-5 113.19-6.05 113.94-7.1 113.94-8.4L113.94-8.4 113.94-11.3Q113.94-13.65 116.89-13.65L116.89-13.65Q119.89-13.65 119.89-11.3L119.89-11.3ZM134.69-30.1L142.69-30.1Q143.99-30.1 145.37-29.55 146.74-29 148.04-28.15L148.04-28.15 147.99-28.15Q149.29-27.2 149.99-25.68 150.69-24.15 150.69-22.15L150.69-22.15 150.69-7.95Q150.69-3.85 147.99-1.9L147.99-1.9Q145.34 0 142.69 0L142.69 0 134.69 0Q133.39 0 132.04-0.45 130.69-0.9 129.39-1.9L129.39-1.9Q126.69-3.8 126.69-7.95L126.69-7.95 126.69-22.15Q126.69-24.15 127.39-25.68 128.09-27.2 129.39-28.15L129.39-28.15 129.34-28.15Q130.59-29 131.99-29.55 133.39-30.1 134.69-30.1L134.69-30.1ZM135.59-4.7L141.79-4.7Q143.64-4.7 144.42-5.75 145.19-6.8 145.19-8L145.19-8 145.19-22.1Q145.19-23.35 144.42-24.38 143.64-25.4 141.79-25.4L141.79-25.4 135.59-25.4Q133.74-25.4 132.97-24.38 132.19-23.35 132.19-22.1L132.19-22.1 132.19-8Q132.19-6.8 132.97-5.75 133.74-4.7 135.59-4.7L135.59-4.7ZM175.54-1.75L175.54-25.4 165.89-25.4Q163.84-25.4 163.19-24.2L163.19-24.2Q162.49-23.15 162.49-21.75L162.49-21.75 162.49-7.35Q162.49-6.05 163.29-5.38 164.09-4.7 165.94-4.7L165.94-4.7 171.09-4.7Q172.89-4.7 172.89-2.35L172.89-2.35Q172.89-1.35 172.46-0.68 172.04 0 171.09 0L171.09 0 165.04 0Q161.89 0 159.44-1.6L159.44-1.6Q156.99-3.1 156.99-7.3L156.99-7.3 156.99-22.2Q156.99-24.25 157.64-25.75 158.29-27.25 159.69-28.2L159.69-28.2Q162.34-30.1 164.99-30.1L164.99-30.1 175.54-30.1 175.54-37.6Q175.54-40 178.29-40L178.29-40Q181.04-40 181.04-37.6L181.04-37.6 181.04-2.1Q181.04 0.3 178.29 0.3L178.29 0.3Q177.24 0.3 176.39-0.08 175.54-0.45 175.54-1.75L175.54-1.75ZM193.14-22.15L193.14-8Q193.14-6.8 193.91-5.75 194.69-4.7 196.54-4.7L196.54-4.7 202.79-4.7Q204.64-4.7 205.41-5.63 206.19-6.55 206.19-7.75L206.19-7.75 206.19-8.3Q206.19-10.65 208.94-10.65L208.94-10.65Q211.69-10.65 211.69-8.3L211.69-8.3 211.69-7.7Q211.69-5.6 211.01-4.25 210.34-2.9 208.99-1.9L208.99-1.9Q206.34 0 203.69 0L203.69 0 195.29 0Q192.64 0 190.14-1.9L190.14-1.9Q188.94-2.9 188.29-4.42 187.64-5.95 187.64-7.95L187.64-7.95 187.64-22.2Q187.64-26.25 190.14-28.2L190.14-28.2Q191.39-29.1 192.71-29.63 194.04-30.15 195.29-30.15L195.29-30.15 203.69-30.15Q204.89-30.15 206.34-29.68 207.79-29.2 209.04-28.4L209.04-28.4Q210.24-27.55 210.96-26.05 211.69-24.55 211.69-22.5L211.69-22.5 211.69-15.75Q211.69-14.6 211.01-13.7 210.34-12.8 208.54-12.8L208.54-12.8 197.74-12.8Q195.94-12.8 195.84-15.15L195.84-15.15Q195.84-17.5 197.74-17.5L197.74-17.5 206.24-17.5 206.19-22.15Q206.19-23.4 205.41-24.43 204.64-25.45 202.79-25.45L202.79-25.45 196.54-25.45Q194.69-25.45 193.91-24.43 193.14-23.4 193.14-22.15L193.14-22.15Z" opacity="1" transform="matrix(1,0,0,1,0,0)" fill="#001f3f" class="wordmark-text-0" data-fill-palette-color="primary" id="text-0"></path></svg></g></svg></g></svg></g></svg></g></svg></g><defs></defs></svg><rect width="395.52" height="89.50139624458352" fill="none" stroke="none" visibility="hidden"></rect></g></svg></g></svg>